<svg width="251" height="75" viewBox="0 0 251 75" fill="none" xmlns="http://www.w3.org/2000/svg">
<path d="M106.848 33.3975C108.827 34.165 110.552 35.47 111.832 37.1675C112.98 38.7925 113.573 40.7425 113.526 42.73C113.583 44.1324 113.347 45.5313 112.832 46.8373C112.317 48.1434 111.535 49.3278 110.535 50.315C108.517 52.0128 106.002 53.0103 103.367 53.1572C100.732 53.3042 98.1206 52.5928 95.926 51.13C94.0603 49.6595 92.7655 47.5868 92.2638 45.2675L95.926 43.4575C96.2667 45.2275 97.1109 46.8625 98.3609 48.1575C99.5302 49.2224 101.07 49.7902 102.652 49.74C104.455 49.8175 106.216 49.19 107.567 47.985C108.189 47.3983 108.678 46.6857 109.002 45.895C109.326 45.1043 109.477 44.2537 109.445 43.4C109.474 41.9686 109.006 40.5713 108.12 39.445C107.069 38.1758 105.714 37.1921 104.18 36.585L100.052 34.8175C98.0687 34.0749 96.322 32.8143 94.9942 31.1675C93.8749 29.6095 93.2969 27.7289 93.3484 25.8125C93.3222 24.6745 93.5498 23.545 94.0146 22.5056C94.4795 21.4662 95.17 20.5429 96.0363 19.8025C97.9444 18.1793 100.394 17.3315 102.9 17.4275C104.747 17.38 106.573 17.8308 108.185 18.7325C109.713 19.63 110.936 20.97 111.692 22.575L108.356 24.715C107.739 23.5562 106.865 22.5533 105.801 21.7825C104.86 21.1318 103.739 20.7909 102.594 20.8075C101.911 20.782 101.229 20.8922 100.588 21.1316C99.9473 21.3711 99.3606 21.7351 98.8618 22.2025C98.3873 22.6633 98.0145 23.2181 97.7673 23.8311C97.5201 24.4442 97.404 25.102 97.4265 25.7625C97.404 26.9125 97.7998 28.0275 98.5387 28.9025C99.4981 29.94 100.68 30.7425 101.996 31.2525L106.848 33.3975ZM131.253 52.32V22.115H121.652V18.2525H144.898V22.115H135.334V52.3175L131.253 52.32ZM163.116 25.8625L157.706 38.405H168.514L163.116 25.8625ZM163.116 16.905L178.547 52.32H174.166L169.757 41.8625H156.503L152.095 52.32H147.711L163.116 16.905ZM206.332 34.7275H220.334V35.8675C220.459 38.1802 220.122 40.4946 219.342 42.6758C218.562 44.8571 217.355 46.8616 215.79 48.5725C214.155 50.1594 212.209 51.3921 210.074 52.1931C207.939 52.9941 205.661 53.3463 203.383 53.2275C201.846 53.2327 200.314 53.0599 198.817 52.7125C197.428 52.3907 196.087 51.8907 194.826 51.225C192.117 49.7611 189.882 47.5578 188.381 44.8725C186.837 42.041 186.054 38.8584 186.109 35.635C186.07 33.0134 186.526 30.4079 187.454 27.955C188.363 25.6639 189.762 23.5989 191.555 21.905C193.085 20.4477 194.902 19.3231 196.891 18.6025C199.048 17.8353 201.326 17.4569 203.616 17.485C206.547 17.4134 209.453 18.0273 212.103 19.2775C214.538 20.4902 216.599 22.3391 218.065 24.6275L214.678 27.3525C213.596 25.4317 212.018 23.8349 210.109 22.7275C208.166 21.6578 205.973 21.1197 203.754 21.1675C201.959 21.1015 200.172 21.4249 198.515 22.1155C196.857 22.8061 195.37 23.8474 194.155 25.1675C191.617 28.0521 190.296 31.8049 190.468 35.64C190.401 37.4702 190.697 39.2955 191.337 41.0117C191.978 42.728 192.951 44.3015 194.2 45.6425C195.43 46.9256 196.915 47.9367 198.561 48.6103C200.207 49.2839 201.976 49.6049 203.754 49.5525C206.878 49.6544 209.919 48.5452 212.241 46.4575C214.523 44.3611 215.881 41.4495 216.021 38.3575H206.327L206.332 34.7275ZM232.819 52.32V18.25H250.722V21.95H236.855V31.7225H250.722V35.4925H236.855V48.545H250.722V52.315H232.819V52.32ZM37.2175 0.654999L29.62 5.055L37.0472 9.36L44.6447 4.9575L37.2175 0.654999ZM23.791 8.43L0.231934 22.08V58.1875L14.7105 66.57L22.3056 62.1675L45.0204 49.0075V40.3875L42.5956 38.98H42.6107L27.6937 30.335L50.4837 17.13L57.9535 21.4575V48.475L34.1515 62.265L41.5486 66.5825L65.1202 52.9275V16.8175L50.6416 8.43L43.0465 12.83L20.3317 25.9925V34.6L22.7564 36.0075H22.7439L37.6609 44.655L14.8659 57.87L7.3986 53.54V26.535L31.2056 12.75L23.791 8.43ZM28.2874 65.6475L20.6949 70.05L28.1195 74.3525L35.7171 69.9525L28.2899 65.6475H28.2874Z" fill="#6D23F8"/>
</svg>
