<svg width="34" height="39" viewBox="0 0 34 39" fill="none" xmlns="http://www.w3.org/2000/svg">
<path d="M19.3796 0L15.3987 2.32844L19.2904 4.6066L23.2713 2.27684L19.3796 0ZM12.3444 4.11445L0 11.3379V30.4456L7.58647 34.8816L11.5661 32.5518L23.4682 25.5877V21.0261L22.1977 20.2812H22.2055L14.3894 15.7064L26.3308 8.71841L30.2448 11.0085V25.3059L17.7731 32.6034L21.649 34.8882L34 27.6621V8.55304L26.4135 4.11445L22.4339 6.44289L10.5318 13.4084V17.9634L11.8023 18.7082H11.7958L19.612 23.2844L7.66785 30.2776L3.75517 27.9862V13.6954L16.2295 6.40056L12.3444 4.11445ZM14.7004 34.3934L10.7221 36.7232L14.6125 39L18.5934 36.6716L14.7017 34.3934H14.7004Z" fill="#6D23F8"/>
</svg>
